<svg xmlns="http://www.w3.org/2000/svg" width="1200" height="420" viewBox="0 0 1200 420" role="img" aria-labelledby="title desc">
  <title id="title">Tri-Point Government Solutions LLC Logo</title>
  <desc id="desc">A professional three-point shield mark with the Tri-Point Government Solutions LLC wordmark.</desc>
  <defs>
    <linearGradient id="g" x1="0" x2="1" y1="0" y2="1">
      <stop offset="0" stop-color="#1E3A5F"/>
      <stop offset="1" stop-color="#0B1F33"/>
    </linearGradient>
  </defs>
  <rect width="1200" height="420" fill="#F7F3EA"/>
  <g transform="translate(80,55)">
    <path d="M150 0 L300 70 L260 260 L150 330 L40 260 L0 70 Z" fill="url(#g)"/>
    <path d="M150 30 L270 86 L238 243 L150 298 L62 243 L30 86 Z" fill="none" stroke="#C89B3C" stroke-width="10"/>
    <circle cx="150" cy="84" r="19" fill="#C89B3C"/>
    <circle cx="80" cy="222" r="19" fill="#C89B3C"/>
    <circle cx="220" cy="222" r="19" fill="#C89B3C"/>
    <path d="M150 101 L91 205 M150 101 L209 205 M99 222 H201" stroke="#F7F3EA" stroke-width="16" stroke-linecap="round"/>
    <path d="M150 130 L122 211 H178 Z" fill="#F7F3EA" opacity=".96"/>
  </g>
  <g transform="translate(430,115)">
    <text x="0" y="0" font-family="Arial, Helvetica, sans-serif" font-size="70" font-weight="800" fill="#0B1F33" letter-spacing="1">TRI-POINT</text>
    <text x="2" y="68" font-family="Arial, Helvetica, sans-serif" font-size="34" font-weight="700" fill="#1E3A5F" letter-spacing="3">GOVERNMENT SOLUTIONS LLC</text>
    <line x1="4" y1="105" x2="610" y2="105" stroke="#C89B3C" stroke-width="8"/>
    <text x="2" y="155" font-family="Arial, Helvetica, sans-serif" font-size="28" font-weight="600" fill="#31465C">Procurement • Logistics • Facility Support</text>
  </g>
</svg>
