<svg xmlns="http://www.w3.org/2000/svg" width="900" height="220" viewBox="0 0 900 220" role="img" aria-labelledby="title desc">
  <title id="title">Tri-Point Government Solutions Email Signature Logo</title>
  <desc id="desc">Compact transparent email signature logo for Tri-Point Government Solutions LLC.</desc>
  <defs>
    <linearGradient id="g" x1="0" x2="1" y1="0" y2="1">
      <stop offset="0" stop-color="#1E3A5F"/>
      <stop offset="1" stop-color="#0B1F33"/>
    </linearGradient>
  </defs>
  <g transform="translate(20,18)">
    <path d="M82 0 L164 38 L142 142 L82 180 L22 142 L0 38 Z" fill="url(#g)"/>
    <path d="M82 18 L148 49 L130 133 L82 164 L34 133 L16 49 Z" fill="none" stroke="#C89B3C" stroke-width="6"/>
    <circle cx="82" cy="48" r="10" fill="#C89B3C"/>
    <circle cx="44" cy="124" r="10" fill="#C89B3C"/>
    <circle cx="120" cy="124" r="10" fill="#C89B3C"/>
    <path d="M82 58 L49 115 M82 58 L115 115 M55 124 H109" stroke="#FFFFFF" stroke-width="8" stroke-linecap="round"/>
    <path d="M82 75 L67 118 H97 Z" fill="#FFFFFF" opacity=".96"/>
  </g>
  <g transform="translate(220,62)">
    <text x="0" y="0" font-family="Arial, Helvetica, sans-serif" font-size="54" font-weight="800" fill="#0B1F33" letter-spacing=".5">TRI-POINT</text>
    <text x="2" y="48" font-family="Arial, Helvetica, sans-serif" font-size="24" font-weight="700" fill="#1E3A5F" letter-spacing="2">GOVERNMENT SOLUTIONS LLC</text>
    <line x1="2" y1="75" x2="520" y2="75" stroke="#C89B3C" stroke-width="5"/>
    <text x="2" y="112" font-family="Arial, Helvetica, sans-serif" font-size="22" font-weight="600" fill="#31465C">Procurement • Logistics • Facility Support</text>
  </g>
</svg>
